<svg xmlns="http://www.w3.org/2000/svg" viewBox="0 0 20 20" fill="none" stroke="currentColor" stroke-width="2" stroke-linecap="round" stroke-linejoin="round">
  <path d="M15 6.5C15 5.57174 14.6313 4.6815 13.9749 4.02513C13.3185 3.36875 12.4283 3 11.5 3C10.5717 3 9.6815 3.36875 9.02513 4.02513C8.36875 4.6815 8 5.57174 8 6.5C8 12 5.5 13.5 5.5 13.5H17.5C17.5 13.5 15 12 15 6.5Z"/>
  <path d="M12.73 16.5C12.5542 16.8031 12.3019 17.0547 11.9982 17.2295C11.6946 17.4044 11.3504 17.4965 11 17.4965C10.6496 17.4965 10.3054 17.4044 10.0018 17.2295C9.69811 17.0547 9.44578 16.8031 9.27 16.5"/>
</svg>
